<svg width="496" height="250" viewBox="0 0 496 250" fill="none" xmlns="http://www.w3.org/2000/svg">
<rect x="11.5" y="26.5" width="197" height="197" rx="98.5" stroke="white" stroke-width="3"/>
<path d="M156.92 70.9091V180H132.205L92.7869 122.685H92.1477V180H62.5312V70.9091H87.6733L126.452 128.011H127.304V70.9091H156.92Z" fill="white"/>
<path d="M246.73 180L214.557 70.9091H247.582L262.497 138.026H263.349L281.034 70.9091H307.028L324.713 138.239H325.565L340.48 70.9091H373.506L341.332 180H312.994L294.457 119.062H293.605L275.068 180H246.73ZM447.054 106.918C446.593 105.036 445.865 103.384 444.87 101.964C443.876 100.508 442.633 99.2827 441.142 98.2884C439.686 97.2585 437.981 96.495 436.028 95.9979C434.11 95.4652 431.997 95.1989 429.689 95.1989C424.718 95.1989 420.474 96.3885 416.958 98.7678C413.478 101.147 410.815 104.574 408.968 109.048C407.157 113.523 406.252 118.92 406.252 125.241C406.252 131.634 407.122 137.102 408.862 141.648C410.602 146.193 413.194 149.673 416.639 152.088C420.083 154.503 424.362 155.71 429.476 155.71C433.986 155.71 437.732 155.053 440.715 153.739C443.734 152.425 445.989 150.561 447.48 148.146C448.972 145.732 449.718 142.891 449.718 139.624L454.831 140.156H429.902V119.062H478.269V134.19C478.269 144.134 476.156 152.638 471.93 159.705C467.74 166.737 461.951 172.134 454.565 175.898C447.214 179.627 438.78 181.491 429.263 181.491C418.645 181.491 409.323 179.237 401.298 174.727C393.272 170.217 387.004 163.789 382.494 155.444C378.02 147.099 375.783 137.173 375.783 125.668C375.783 116.648 377.15 108.658 379.884 101.697C382.654 94.7372 386.49 88.8601 391.39 84.066C396.291 79.2365 401.955 75.5966 408.382 73.1463C414.81 70.6605 421.699 69.4176 429.05 69.4176C435.513 69.4176 441.514 70.3409 447.054 72.1875C452.629 73.9986 457.548 76.5909 461.809 79.9645C466.106 83.3026 469.568 87.2621 472.196 91.843C474.824 96.424 476.422 101.449 476.99 106.918H447.054Z" fill="white"/>
</svg>
