<svg width="1410" height="520" viewBox="0 0 1410 520" fill="none" xmlns="http://www.w3.org/2000/svg">
<circle cx="260" cy="260" r="250" stroke="#2563EB" stroke-width="20"/>
<path d="M191.852 227.545V293H177.023L153.372 258.611H152.989V293H135.219V227.545H150.304L173.571 261.807H174.082V227.545H191.852ZM281.667 260.273C281.667 267.56 280.25 273.707 277.416 278.714C274.582 283.7 270.758 287.482 265.942 290.06C261.127 292.616 255.758 293.895 249.835 293.895C243.869 293.895 238.478 292.606 233.663 290.028C228.869 287.428 225.055 283.636 222.221 278.65C219.408 273.643 218.002 267.517 218.002 260.273C218.002 252.986 219.408 246.849 222.221 241.864C225.055 236.857 228.869 233.075 233.663 230.518C238.478 227.94 243.869 226.651 249.835 226.651C255.758 226.651 261.127 227.94 265.942 230.518C270.758 233.075 274.582 236.857 277.416 241.864C280.25 246.849 281.667 252.986 281.667 260.273ZM263.386 260.273C263.386 256.352 262.864 253.05 261.82 250.365C260.797 247.659 259.273 245.614 257.249 244.229C255.246 242.822 252.775 242.119 249.835 242.119C246.894 242.119 244.412 242.822 242.388 244.229C240.385 245.614 238.862 247.659 237.817 250.365C236.795 253.05 236.283 256.352 236.283 260.273C236.283 264.193 236.795 267.506 237.817 270.212C238.862 272.897 240.385 274.942 242.388 276.349C244.412 277.734 246.894 278.426 249.835 278.426C252.775 278.426 255.246 277.734 257.249 276.349C259.273 274.942 260.797 272.897 261.82 270.212C262.864 267.506 263.386 264.193 263.386 260.273ZM307.889 293V227.545H336.142C340.999 227.545 345.25 228.43 348.894 230.198C352.537 231.967 355.371 234.513 357.395 237.837C359.419 241.161 360.431 245.145 360.431 249.79C360.431 254.477 359.387 258.43 357.299 261.647C355.232 264.864 352.324 267.293 348.574 268.934C344.845 270.575 340.488 271.395 335.502 271.395H318.627V257.588H331.923C334.011 257.588 335.79 257.332 337.26 256.821C338.752 256.288 339.892 255.447 340.68 254.296C341.49 253.146 341.894 251.643 341.894 249.79C341.894 247.915 341.49 246.391 340.68 245.219C339.892 244.026 338.752 243.153 337.26 242.599C335.79 242.023 334.011 241.736 331.923 241.736H325.659V293H307.889ZM346.241 262.957L362.605 293H343.301L327.32 262.957H346.241ZM384.216 241.864V227.545H441.105V241.864H421.418V293H403.904V241.864H384.216ZM465.793 293V227.545H483.563V253.114H507.086V227.545H524.855V293H507.086V267.432H483.563V293H465.793ZM567.912 293L548.608 227.545H568.424L577.373 267.815H577.884L588.495 227.545H604.091L614.702 267.943H615.213L624.162 227.545H643.978L624.674 293H607.671L596.549 256.438H596.037L584.915 293H567.912ZM667.73 293V227.545H714.904V241.864H685.5V253.114H712.475V267.432H685.5V278.682H714.776V293H667.73ZM777.001 248C776.83 245.869 776.031 244.207 774.604 243.014C773.198 241.821 771.056 241.224 768.18 241.224C766.347 241.224 764.845 241.448 763.673 241.896C762.523 242.322 761.671 242.908 761.117 243.653C760.563 244.399 760.275 245.251 760.254 246.21C760.211 246.999 760.35 247.712 760.669 248.352C761.01 248.969 761.543 249.534 762.267 250.045C762.992 250.536 763.919 250.983 765.048 251.388C766.177 251.793 767.519 252.155 769.075 252.474L774.444 253.625C778.066 254.392 781.166 255.404 783.744 256.661C786.323 257.918 788.432 259.399 790.073 261.104C791.713 262.787 792.917 264.683 793.684 266.793C794.472 268.902 794.877 271.203 794.899 273.696C794.877 278 793.801 281.643 791.671 284.626C789.54 287.609 786.493 289.879 782.53 291.434C778.588 292.989 773.847 293.767 768.308 293.767C762.619 293.767 757.654 292.925 753.414 291.242C749.195 289.559 745.914 286.97 743.57 283.476C741.248 279.96 740.076 275.464 740.055 269.989H756.93C757.036 271.991 757.537 273.675 758.432 275.038C759.327 276.402 760.584 277.435 762.203 278.138C763.844 278.842 765.794 279.193 768.052 279.193C769.948 279.193 771.536 278.959 772.814 278.49C774.093 278.021 775.062 277.371 775.722 276.54C776.383 275.71 776.724 274.761 776.745 273.696C776.724 272.695 776.394 271.821 775.754 271.075C775.137 270.308 774.114 269.626 772.686 269.03C771.259 268.412 769.33 267.837 766.901 267.304L760.382 265.898C754.586 264.641 750.016 262.542 746.671 259.602C743.347 256.64 741.695 252.602 741.717 247.489C741.695 243.334 742.803 239.701 745.041 236.59C747.299 233.458 750.421 231.018 754.405 229.271C758.411 227.524 763.002 226.651 768.18 226.651C773.464 226.651 778.034 227.535 781.891 229.303C785.747 231.072 788.72 233.565 790.808 236.782C792.917 239.978 793.982 243.717 794.004 248H777.001ZM817.868 241.864V227.545H874.758V241.864H855.07V293H837.556V241.864H817.868ZM977.882 249.151C977.605 248.021 977.168 247.031 976.572 246.178C975.975 245.305 975.229 244.57 974.335 243.973C973.461 243.355 972.438 242.897 971.266 242.599C970.116 242.279 968.848 242.119 967.463 242.119C964.48 242.119 961.934 242.833 959.825 244.261C957.737 245.688 956.138 247.744 955.031 250.429C953.944 253.114 953.401 256.352 953.401 260.145C953.401 263.98 953.923 267.261 954.967 269.989C956.011 272.716 957.566 274.804 959.633 276.253C961.7 277.702 964.267 278.426 967.335 278.426C970.041 278.426 972.289 278.032 974.079 277.244C975.89 276.455 977.243 275.337 978.138 273.888C979.033 272.439 979.48 270.734 979.48 268.774L982.548 269.094H967.591V256.438H996.611V265.514C996.611 271.48 995.343 276.583 992.808 280.823C990.293 285.042 986.82 288.281 982.388 290.539C977.978 292.776 972.918 293.895 967.207 293.895C960.837 293.895 955.244 292.542 950.428 289.836C945.613 287.13 941.852 283.273 939.146 278.266C936.462 273.259 935.119 267.304 935.119 260.401C935.119 254.989 935.94 250.195 937.58 246.018C939.242 241.842 941.543 238.316 944.484 235.44C947.424 232.542 950.822 230.358 954.679 228.888C958.536 227.396 962.669 226.651 967.08 226.651C970.957 226.651 974.558 227.205 977.882 228.312C981.227 229.399 984.178 230.955 986.735 232.979C989.313 234.982 991.391 237.357 992.967 240.106C994.544 242.854 995.503 245.869 995.844 249.151H977.882ZM1022.9 293V227.545H1051.15C1056.01 227.545 1060.26 228.43 1063.9 230.198C1067.54 231.967 1070.38 234.513 1072.4 237.837C1074.43 241.161 1075.44 245.145 1075.44 249.79C1075.44 254.477 1074.4 258.43 1072.31 261.647C1070.24 264.864 1067.33 267.293 1063.58 268.934C1059.85 270.575 1055.5 271.395 1050.51 271.395H1033.64V257.588H1046.93C1049.02 257.588 1050.8 257.332 1052.27 256.821C1053.76 256.288 1054.9 255.447 1055.69 254.296C1056.5 253.146 1056.9 251.643 1056.9 249.79C1056.9 247.915 1056.5 246.391 1055.69 245.219C1054.9 244.026 1053.76 243.153 1052.27 242.599C1050.8 242.023 1049.02 241.736 1046.93 241.736H1040.67V293H1022.9ZM1061.25 262.957L1077.61 293H1058.31L1042.33 262.957H1061.25ZM1118.02 293H1098.84L1120.45 227.545H1144.74L1166.34 293H1147.16L1132.85 245.571H1132.33L1118.02 293ZM1114.44 267.176H1150.49V280.472H1114.44V267.176ZM1247.28 227.545V293H1232.45L1208.8 258.611H1208.41V293H1190.64V227.545H1205.73L1229 261.807H1229.51V227.545H1247.28ZM1271.89 241.864V227.545H1328.78V241.864H1309.1V293H1291.58V241.864H1271.89ZM1388.75 248C1388.58 245.869 1387.79 244.207 1386.36 243.014C1384.95 241.821 1382.81 241.224 1379.93 241.224C1378.1 241.224 1376.6 241.448 1375.43 241.896C1374.28 242.322 1373.42 242.908 1372.87 243.653C1372.32 244.399 1372.03 245.251 1372.01 246.21C1371.97 246.999 1372.1 247.712 1372.42 248.352C1372.76 248.969 1373.3 249.534 1374.02 250.045C1374.75 250.536 1375.67 250.983 1376.8 251.388C1377.93 251.793 1379.27 252.155 1380.83 252.474L1386.2 253.625C1389.82 254.392 1392.92 255.404 1395.5 256.661C1398.08 257.918 1400.19 259.399 1401.83 261.104C1403.47 262.787 1404.67 264.683 1405.44 266.793C1406.23 268.902 1406.63 271.203 1406.65 273.696C1406.63 278 1405.56 281.643 1403.42 284.626C1401.29 287.609 1398.25 289.879 1394.28 291.434C1390.34 292.989 1385.6 293.767 1380.06 293.767C1374.37 293.767 1369.41 292.925 1365.17 291.242C1360.95 289.559 1357.67 286.97 1355.32 283.476C1353 279.96 1351.83 275.464 1351.81 269.989H1368.68C1368.79 271.991 1369.29 273.675 1370.19 275.038C1371.08 276.402 1372.34 277.435 1373.96 278.138C1375.6 278.842 1377.55 279.193 1379.81 279.193C1381.7 279.193 1383.29 278.959 1384.57 278.49C1385.85 278.021 1386.82 277.371 1387.48 276.54C1388.14 275.71 1388.48 274.761 1388.5 273.696C1388.48 272.695 1388.15 271.821 1387.51 271.075C1386.89 270.308 1385.87 269.626 1384.44 269.03C1383.01 268.412 1381.08 267.837 1378.66 267.304L1372.14 265.898C1366.34 264.641 1361.77 262.542 1358.42 259.602C1355.1 256.64 1353.45 252.602 1353.47 247.489C1353.45 243.334 1354.56 239.701 1356.79 236.59C1359.05 233.458 1362.17 231.018 1366.16 229.271C1370.16 227.524 1374.76 226.651 1379.93 226.651C1385.22 226.651 1389.79 227.535 1393.64 229.303C1397.5 231.072 1400.47 233.565 1402.56 236.782C1404.67 239.978 1405.74 243.717 1405.76 248H1388.75Z" fill="#2563EB"/>
</svg>
