<svg width="1215" height="520" viewBox="0 0 1215 520" fill="none" xmlns="http://www.w3.org/2000/svg">
<circle cx="260" cy="260" r="250" stroke="#2563EB" stroke-width="20"/>
<path d="M85.2188 293V227.545H113.472C118.33 227.545 122.58 228.504 126.224 230.422C129.867 232.339 132.701 235.035 134.725 238.508C136.749 241.981 137.761 246.04 137.761 250.685C137.761 255.372 136.717 259.431 134.629 262.862C132.563 266.292 129.654 268.934 125.904 270.788C122.175 272.641 117.818 273.568 112.832 273.568H95.9574V259.761H109.253C111.341 259.761 113.12 259.399 114.59 258.675C116.082 257.929 117.222 256.874 118.01 255.511C118.82 254.147 119.224 252.538 119.224 250.685C119.224 248.81 118.82 247.212 118.01 245.891C117.222 244.548 116.082 243.526 114.59 242.822C113.12 242.098 111.341 241.736 109.253 241.736H102.989V293H85.2188ZM162.281 293V227.545H180.051V278.682H206.514V293H162.281ZM248.7 293H229.524L251.129 227.545H275.419L297.024 293H277.848L263.53 245.571H263.018L248.7 293ZM245.121 267.176H281.172V280.472H245.121V267.176ZM311.277 241.864V227.545H368.166V241.864H348.478V293H330.964V241.864H311.277ZM410.623 227.545V293H392.854V227.545H410.623ZM493.678 227.545V293H478.849L455.198 258.611H454.815V293H437.045V227.545H452.13L475.397 261.807H475.909V227.545H493.678ZM558.82 227.545H576.59V269.477C576.59 274.463 575.396 278.778 573.01 282.421C570.645 286.043 567.343 288.845 563.102 290.827C558.862 292.787 553.941 293.767 548.337 293.767C542.691 293.767 537.747 292.787 533.507 290.827C529.267 288.845 525.965 286.043 523.6 282.421C521.256 278.778 520.084 274.463 520.084 269.477V227.545H537.854V267.943C537.854 269.967 538.301 271.778 539.196 273.376C540.091 274.953 541.327 276.189 542.904 277.084C544.502 277.979 546.313 278.426 548.337 278.426C550.382 278.426 552.193 277.979 553.77 277.084C555.347 276.189 556.583 274.953 557.477 273.376C558.372 271.778 558.82 269.967 558.82 267.943V227.545ZM603.035 227.545H625.152L640.365 264.619H641.132L656.345 227.545H678.461V293H661.075V255.159H660.564L645.99 292.489H635.507L620.933 254.903H620.422V293H603.035V227.545ZM783.32 249.151C783.043 248.021 782.606 247.031 782.009 246.178C781.413 245.305 780.667 244.57 779.772 243.973C778.898 243.355 777.876 242.897 776.704 242.599C775.553 242.279 774.286 242.119 772.901 242.119C769.918 242.119 767.371 242.833 765.262 244.261C763.174 245.688 761.576 247.744 760.468 250.429C759.381 253.114 758.838 256.352 758.838 260.145C758.838 263.98 759.36 267.261 760.404 269.989C761.448 272.716 763.004 274.804 765.07 276.253C767.137 277.702 769.705 278.426 772.773 278.426C775.479 278.426 777.727 278.032 779.516 277.244C781.327 276.455 782.68 275.337 783.575 273.888C784.47 272.439 784.918 270.734 784.918 268.774L787.986 269.094H773.028V256.438H802.048V265.514C802.048 271.48 800.781 276.583 798.245 280.823C795.731 285.042 792.258 288.281 787.826 290.539C783.415 292.776 778.355 293.895 772.645 293.895C766.274 293.895 760.681 292.542 755.866 289.836C751.05 287.13 747.29 283.273 744.584 278.266C741.899 273.259 740.557 267.304 740.557 260.401C740.557 254.989 741.377 250.195 743.018 246.018C744.68 241.842 746.981 238.316 749.921 235.44C752.862 232.542 756.26 230.358 760.116 228.888C763.973 227.396 768.107 226.651 772.517 226.651C776.395 226.651 779.996 227.205 783.32 228.312C786.665 229.399 789.616 230.955 792.173 232.979C794.751 234.982 796.828 237.357 798.405 240.106C799.982 242.854 800.94 245.869 801.281 249.151H783.32ZM828.334 293V227.545H856.587C861.445 227.545 865.695 228.43 869.339 230.198C872.982 231.967 875.816 234.513 877.84 237.837C879.865 241.161 880.877 245.145 880.877 249.79C880.877 254.477 879.833 258.43 877.744 261.647C875.678 264.864 872.769 267.293 869.019 268.934C865.291 270.575 860.933 271.395 855.948 271.395H839.073V257.588H852.368C854.456 257.588 856.235 257.332 857.705 256.821C859.197 256.288 860.337 255.447 861.125 254.296C861.935 253.146 862.34 251.643 862.34 249.79C862.34 247.915 861.935 246.391 861.125 245.219C860.337 244.026 859.197 243.153 857.705 242.599C856.235 242.023 854.456 241.736 852.368 241.736H846.104V293H828.334ZM866.686 262.957L883.05 293H863.746L847.766 262.957H866.686ZM923.454 293H904.278L925.883 227.545H950.173L971.778 293H952.602L938.284 245.571H937.772L923.454 293ZM919.874 267.176H955.926V280.472H919.874V267.176ZM1052.72 227.545V293H1037.89L1014.24 258.611H1013.85V293H996.082V227.545H1011.17L1034.43 261.807H1034.95V227.545H1052.72ZM1077.33 241.864V227.545H1134.22V241.864H1114.53V293H1097.02V241.864H1077.33ZM1194.19 248C1194.02 245.869 1193.22 244.207 1191.8 243.014C1190.39 241.821 1188.25 241.224 1185.37 241.224C1183.54 241.224 1182.04 241.448 1180.86 241.896C1179.71 242.322 1178.86 242.908 1178.31 243.653C1177.75 244.399 1177.47 245.251 1177.45 246.21C1177.4 246.999 1177.54 247.712 1177.86 248.352C1178.2 248.969 1178.73 249.534 1179.46 250.045C1180.18 250.536 1181.11 250.983 1182.24 251.388C1183.37 251.793 1184.71 252.155 1186.27 252.474L1191.64 253.625C1195.26 254.392 1198.36 255.404 1200.94 256.661C1203.51 257.918 1205.62 259.399 1207.26 261.104C1208.9 262.787 1210.11 264.683 1210.88 266.793C1211.66 268.902 1212.07 271.203 1212.09 273.696C1212.07 278 1210.99 281.643 1208.86 284.626C1206.73 287.609 1203.68 289.879 1199.72 291.434C1195.78 292.989 1191.04 293.767 1185.5 293.767C1179.81 293.767 1174.85 292.925 1170.61 291.242C1166.39 289.559 1163.11 286.97 1160.76 283.476C1158.44 279.96 1157.27 275.464 1157.25 269.989H1174.12C1174.23 271.991 1174.73 273.675 1175.62 275.038C1176.52 276.402 1177.78 277.435 1179.39 278.138C1181.04 278.842 1182.98 279.193 1185.24 279.193C1187.14 279.193 1188.73 278.959 1190.01 278.49C1191.28 278.021 1192.25 277.371 1192.91 276.54C1193.57 275.71 1193.92 274.761 1193.94 273.696C1193.92 272.695 1193.59 271.821 1192.95 271.075C1192.33 270.308 1191.31 269.626 1189.88 269.03C1188.45 268.412 1186.52 267.837 1184.09 267.304L1177.57 265.898C1171.78 264.641 1167.21 262.542 1163.86 259.602C1160.54 256.64 1158.89 252.602 1158.91 247.489C1158.89 243.334 1159.99 239.701 1162.23 236.59C1164.49 233.458 1167.61 231.018 1171.6 229.271C1175.6 227.524 1180.19 226.651 1185.37 226.651C1190.66 226.651 1195.23 227.535 1199.08 229.303C1202.94 231.072 1205.91 233.565 1208 236.782C1210.11 239.978 1211.17 243.717 1211.2 248H1194.19Z" fill="#2563EB"/>
</svg>
