<svg width="932" height="520" viewBox="0 0 932 520" fill="none" xmlns="http://www.w3.org/2000/svg">
<circle cx="260" cy="260" r="250" stroke="#2563EB" stroke-width="20"/>
<path d="M49.9886 227.545V293H32.2188V227.545H49.9886ZM62.9102 227.545H85.0266L100.24 264.619H101.007L116.22 227.545H138.336V293H120.95V255.159H120.439L105.865 292.489H95.3817L80.8079 254.903H80.2965V293H62.9102V227.545ZM151.258 293V227.545H179.511C184.369 227.545 188.619 228.504 192.263 230.422C195.906 232.339 198.74 235.035 200.764 238.508C202.788 241.981 203.8 246.04 203.8 250.685C203.8 255.372 202.756 259.431 200.668 262.862C198.602 266.292 195.693 268.934 191.943 270.788C188.214 272.641 183.857 273.568 178.871 273.568H161.996V259.761H175.292C177.38 259.761 179.159 259.399 180.629 258.675C182.121 257.929 183.261 256.874 184.049 255.511C184.859 254.147 185.263 252.538 185.263 250.685C185.263 248.81 184.859 247.212 184.049 245.891C183.261 244.548 182.121 243.526 180.629 242.822C179.159 242.098 177.38 241.736 175.292 241.736H169.028V293H151.258ZM214.82 293V227.545H261.994V241.864H232.59V253.114H259.565V267.432H232.59V278.682H261.866V293H214.82ZM275.307 293V227.545H303.559C308.417 227.545 312.668 228.43 316.312 230.198C319.955 231.967 322.789 234.513 324.813 237.837C326.837 241.161 327.849 245.145 327.849 249.79C327.849 254.477 326.805 258.43 324.717 261.647C322.65 264.864 319.742 267.293 315.992 268.934C312.263 270.575 307.906 271.395 302.92 271.395H286.045V257.588H299.341C301.429 257.588 303.208 257.332 304.678 256.821C306.17 256.288 307.309 255.447 308.098 254.296C308.907 253.146 309.312 251.643 309.312 249.79C309.312 247.915 308.907 246.391 308.098 245.219C307.309 244.026 306.17 243.153 304.678 242.599C303.208 242.023 301.429 241.736 299.341 241.736H293.077V293H275.307ZM313.659 262.957L330.023 293H310.719L294.738 262.957H313.659ZM357.694 227.545V293H339.924V227.545H357.694ZM387.618 293H368.442L390.047 227.545H414.337L435.942 293H416.766L402.448 245.571H401.936L387.618 293ZM384.039 267.176H420.09V280.472H384.039V267.176ZM446.746 293V227.545H464.516V278.682H490.979V293H446.746ZM567.599 249.151C567.322 248.021 566.885 247.031 566.289 246.178C565.692 245.305 564.946 244.57 564.051 243.973C563.178 243.355 562.155 242.897 560.983 242.599C559.833 242.279 558.565 242.119 557.18 242.119C554.197 242.119 551.651 242.833 549.541 244.261C547.453 245.688 545.855 247.744 544.747 250.429C543.661 253.114 543.117 256.352 543.117 260.145C543.117 263.98 543.639 267.261 544.683 269.989C545.727 272.716 547.283 274.804 549.35 276.253C551.416 277.702 553.984 278.426 557.052 278.426C559.758 278.426 562.006 278.032 563.796 277.244C565.607 276.455 566.96 275.337 567.855 273.888C568.749 272.439 569.197 270.734 569.197 268.774L572.265 269.094H557.308V256.438H586.328V265.514C586.328 271.48 585.06 276.583 582.524 280.823C580.01 285.042 576.537 288.281 572.105 290.539C567.695 292.776 562.634 293.895 556.924 293.895C550.553 293.895 544.96 292.542 540.145 289.836C535.33 287.13 531.569 283.273 528.863 278.266C526.178 273.259 524.836 267.304 524.836 260.401C524.836 254.989 525.656 250.195 527.297 246.018C528.959 241.842 531.26 238.316 534.2 235.44C537.141 232.542 540.539 230.358 544.396 228.888C548.252 227.396 552.386 226.651 556.796 226.651C560.674 226.651 564.275 227.205 567.599 228.312C570.944 229.399 573.895 230.955 576.452 232.979C579.03 234.982 581.107 237.357 582.684 240.106C584.261 242.854 585.22 245.869 585.561 249.151H567.599ZM599.113 293V227.545H627.366C632.224 227.545 636.475 228.43 640.118 230.198C643.762 231.967 646.596 234.513 648.62 237.837C650.644 241.161 651.656 245.145 651.656 249.79C651.656 254.477 650.612 258.43 648.524 261.647C646.457 264.864 643.549 267.293 639.799 268.934C636.07 270.575 631.713 271.395 626.727 271.395H609.852V257.588H623.147C625.235 257.588 627.015 257.332 628.485 256.821C629.976 256.288 631.116 255.447 631.904 254.296C632.714 253.146 633.119 251.643 633.119 249.79C633.119 247.915 632.714 246.391 631.904 245.219C631.116 244.026 629.976 243.153 628.485 242.599C627.015 242.023 625.235 241.736 623.147 241.736H616.883V293H599.113ZM637.466 262.957L653.829 293H634.525L618.545 262.957H637.466ZM680.733 293H661.557L683.162 227.545H707.452L729.057 293H709.881L695.563 245.571H695.051L680.733 293ZM677.154 267.176H713.205V280.472H677.154V267.176ZM796.495 227.545V293H781.665L758.015 258.611H757.631V293H739.861V227.545H754.947L778.214 261.807H778.725V227.545H796.495ZM807.611 241.864V227.545H864.5V241.864H844.812V293H827.298V241.864H807.611ZM910.972 248C910.801 245.869 910.002 244.207 908.575 243.014C907.168 241.821 905.027 241.224 902.151 241.224C900.318 241.224 898.816 241.448 897.644 241.896C896.494 242.322 895.641 242.908 895.087 243.653C894.533 244.399 894.246 245.251 894.224 246.21C894.182 246.999 894.32 247.712 894.64 248.352C894.981 248.969 895.513 249.534 896.238 250.045C896.962 250.536 897.889 250.983 899.018 251.388C900.148 251.793 901.49 252.155 903.045 252.474L908.415 253.625C912.037 254.392 915.137 255.404 917.715 256.661C920.293 257.918 922.403 259.399 924.043 261.104C925.684 262.787 926.888 264.683 927.655 266.793C928.443 268.902 928.848 271.203 928.869 273.696C928.848 278 927.772 281.643 925.641 284.626C923.511 287.609 920.464 289.879 916.501 291.434C912.559 292.989 907.818 293.767 902.278 293.767C896.589 293.767 891.625 292.925 887.385 291.242C883.166 289.559 879.885 286.97 877.541 283.476C875.219 279.96 874.047 275.464 874.026 269.989H890.901C891.007 271.991 891.508 273.675 892.403 275.038C893.298 276.402 894.555 277.435 896.174 278.138C897.815 278.842 899.764 279.193 902.023 279.193C903.919 279.193 905.506 278.959 906.785 278.49C908.063 278.021 909.033 277.371 909.693 276.54C910.354 275.71 910.695 274.761 910.716 273.696C910.695 272.695 910.364 271.821 909.725 271.075C909.107 270.308 908.085 269.626 906.657 269.03C905.229 268.412 903.301 267.837 900.872 267.304L894.352 265.898C888.557 264.641 883.987 262.542 880.641 259.602C877.317 256.64 875.666 252.602 875.688 247.489C875.666 243.334 876.774 239.701 879.011 236.59C881.27 233.458 884.391 231.018 888.376 229.271C892.381 227.524 896.973 226.651 902.151 226.651C907.435 226.651 912.005 227.535 915.862 229.303C919.718 231.072 922.69 233.565 924.778 236.782C926.888 239.978 927.953 243.717 927.974 248H910.972Z" fill="#2563EB"/>
</svg>
